<svg width="137" height="34" viewBox="0 0 137 34" fill="none" xmlns="http://www.w3.org/2000/svg">
<path d="M0.44043 10L4.41643 0.284029H5.36843L9.33043 10H7.90243L4.64043 1.78203H5.13043L1.84043 10H0.44043ZM2.33043 7.80203V6.65403H7.44043V7.80203H2.33043Z" fill="#444444"/>
<path d="M10.6785 10V3.35003H11.9385V10H10.6785ZM11.9385 6.20603L11.4625 5.99603C11.4625 5.1467 11.6585 4.47003 12.0505 3.96603C12.4425 3.46203 13.0071 3.21003 13.7445 3.21003C14.0805 3.21003 14.3838 3.2707 14.6545 3.39203C14.9251 3.50403 15.1771 3.69536 15.4105 3.96603L14.5845 4.82003C14.4445 4.6707 14.2905 4.56336 14.1225 4.49803C13.9545 4.4327 13.7585 4.40003 13.5345 4.40003C13.0678 4.40003 12.6851 4.54936 12.3865 4.84803C12.0878 5.1467 11.9385 5.59936 11.9385 6.20603Z" fill="#444444"/>
<path d="M19.1169 10.14C18.4635 10.14 17.8709 9.98603 17.3389 9.67803C16.8162 9.37003 16.4009 8.9547 16.0929 8.43203C15.7942 7.90003 15.6449 7.31203 15.6449 6.66803C15.6449 6.0147 15.7942 5.4267 16.0929 4.90403C16.4009 4.38136 16.8162 3.9707 17.3389 3.67203C17.8709 3.36403 18.4635 3.21003 19.1169 3.21003C19.6302 3.21003 20.1062 3.30803 20.5449 3.50403C20.9835 3.6907 21.3615 3.96603 21.6789 4.33003L20.8389 5.17003C20.6335 4.92736 20.3815 4.74536 20.0829 4.62403C19.7935 4.49336 19.4715 4.42803 19.1169 4.42803C18.6969 4.42803 18.3235 4.52603 17.9969 4.72203C17.6702 4.9087 17.4135 5.17003 17.2269 5.50603C17.0402 5.84203 16.9469 6.22936 16.9469 6.66803C16.9469 7.1067 17.0402 7.49403 17.2269 7.83003C17.4135 8.16603 17.6702 8.43203 17.9969 8.62803C18.3235 8.82403 18.6969 8.92203 19.1169 8.92203C19.4715 8.92203 19.7935 8.86136 20.0829 8.74003C20.3815 8.60936 20.6382 8.4227 20.8529 8.18003L21.6789 9.02003C21.3709 9.3747 20.9929 9.65003 20.5449 9.84603C20.1062 10.042 19.6302 10.14 19.1169 10.14Z" fill="#444444"/>
<path d="M27.6325 10V6.12203C27.6325 5.61803 27.4738 5.2027 27.1565 4.87603C26.8391 4.54936 26.4285 4.38603 25.9245 4.38603C25.5885 4.38603 25.2898 4.4607 25.0285 4.61003C24.7671 4.75936 24.5618 4.9647 24.4125 5.22603C24.2631 5.48736 24.1885 5.78603 24.1885 6.12203L23.6705 5.82803C23.6705 5.32403 23.7825 4.87603 24.0065 4.48403C24.2305 4.09203 24.5431 3.78403 24.9445 3.56003C25.3458 3.3267 25.7985 3.21003 26.3025 3.21003C26.8065 3.21003 27.2498 3.32203 27.6325 3.54603C28.0245 3.77003 28.3325 4.0827 28.5565 4.48403C28.7805 4.88536 28.8925 5.34736 28.8925 5.87003V10H27.6325ZM22.9285 10V0.00402832H24.1885V10H22.9285Z" fill="#444444"/>
<path d="M30.6124 10V3.35003H31.8724V10H30.6124ZM31.2424 2.02003C31.0091 2.02003 30.8177 1.94536 30.6684 1.79603C30.5191 1.63736 30.4444 1.44136 30.4444 1.20803C30.4444 0.984029 30.5191 0.797362 30.6684 0.648028C30.8177 0.489362 31.0091 0.410028 31.2424 0.410028C31.4757 0.410028 31.6671 0.489362 31.8164 0.648028C31.9657 0.797362 32.0404 0.984029 32.0404 1.20803C32.0404 1.44136 31.9657 1.63736 31.8164 1.79603C31.6671 1.94536 31.4757 2.02003 31.2424 2.02003Z" fill="#444444"/>
<path d="M34.7513 10V0.564029H36.0113V10H34.7513ZM33.1133 4.49803V3.35003H37.6493V4.49803H33.1133Z" fill="#444444"/>
<path d="M41.7585 10.14C41.0958 10.14 40.4985 9.9907 39.9665 9.69203C39.4345 9.38403 39.0145 8.9687 38.7065 8.44603C38.3985 7.92336 38.2445 7.3307 38.2445 6.66803C38.2445 6.0147 38.3938 5.4267 38.6925 4.90403C39.0005 4.38136 39.4111 3.9707 39.9245 3.67203C40.4471 3.36403 41.0305 3.21003 41.6745 3.21003C42.2905 3.21003 42.8318 3.35003 43.2985 3.63003C43.7745 3.91003 44.1431 4.29736 44.4045 4.79203C44.6751 5.2867 44.8105 5.8467 44.8105 6.47203C44.8105 6.56536 44.8058 6.66803 44.7965 6.78003C44.7871 6.8827 44.7685 7.00403 44.7405 7.14403H39.1265V6.09403H44.0685L43.6065 6.50003C43.6065 6.05203 43.5271 5.67403 43.3685 5.36603C43.2098 5.0487 42.9858 4.80603 42.6965 4.63803C42.4071 4.4607 42.0571 4.37203 41.6465 4.37203C41.2171 4.37203 40.8391 4.46536 40.5125 4.65203C40.1858 4.8387 39.9338 5.10003 39.7565 5.43603C39.5791 5.77203 39.4905 6.1687 39.4905 6.62603C39.4905 7.0927 39.5838 7.50336 39.7705 7.85803C39.9571 8.20336 40.2231 8.47403 40.5685 8.67003C40.9138 8.8567 41.3105 8.95003 41.7585 8.95003C42.1318 8.95003 42.4725 8.8847 42.7805 8.75403C43.0978 8.62336 43.3685 8.42736 43.5925 8.16603L44.4045 8.99203C44.0871 9.36536 43.6951 9.65003 43.2285 9.84603C42.7711 10.042 42.2811 10.14 41.7585 10.14Z" fill="#444444"/>
<path d="M50.4403 10L47.3323 6.59803L50.4123 3.35003H51.9383L48.5083 6.93403L48.5643 6.20603L52.0643 10H50.4403ZM46.1843 10V0.00402832H47.4443V10H46.1843Z" fill="#444444"/>
<path d="M53.7005 10V0.564029H54.9605V10H53.7005ZM52.0625 4.49803V3.35003H56.5985V4.49803H52.0625Z" fill="#444444"/>
<path d="M60.5068 10.14C59.9654 10.14 59.4754 10.0187 59.0368 9.77603C58.6074 9.52403 58.2714 9.1787 58.0288 8.74003C57.7861 8.30136 57.6648 7.7927 57.6648 7.21403V3.35003H58.9248V7.15803C58.9248 7.52203 58.9854 7.83936 59.1068 8.11003C59.2374 8.37136 59.4241 8.57203 59.6668 8.71203C59.9094 8.85203 60.1941 8.92203 60.5208 8.92203C61.0154 8.92203 61.4028 8.76803 61.6828 8.46003C61.9628 8.1427 62.1028 7.7087 62.1028 7.15803V3.35003H63.3628V7.21403C63.3628 7.7927 63.2414 8.30136 62.9988 8.74003C62.7561 9.1787 62.4201 9.52403 61.9908 9.77603C61.5708 10.0187 61.0761 10.14 60.5068 10.14Z" fill="#444444"/>
<path d="M65.0515 10V3.35003H66.3115V10H65.0515ZM66.3115 6.20603L65.8355 5.99603C65.8355 5.1467 66.0315 4.47003 66.4235 3.96603C66.8155 3.46203 67.3802 3.21003 68.1175 3.21003C68.4535 3.21003 68.7569 3.2707 69.0275 3.39203C69.2982 3.50403 69.5502 3.69536 69.7835 3.96603L68.9575 4.82003C68.8175 4.6707 68.6635 4.56336 68.4955 4.49803C68.3275 4.4327 68.1315 4.40003 67.9075 4.40003C67.4409 4.40003 67.0582 4.54936 66.7595 4.84803C66.4609 5.1467 66.3115 5.59936 66.3115 6.20603Z" fill="#444444"/>
<path d="M1.75608 32V17.88H3.95608L4.89608 20.7V32H1.75608ZM11.4961 32L3.17608 21.34L3.95608 17.88L12.2761 28.54L11.4961 32ZM11.4961 32L10.6561 29.18V17.88H13.7961V32H11.4961Z" fill="#2C2C2C"/>
<path d="M20.3017 32.2C19.4084 32.2 18.6084 31.98 17.9017 31.54C17.2084 31.1 16.655 30.5 16.2417 29.74C15.8417 28.98 15.6417 28.1134 15.6417 27.14C15.6417 26.1667 15.8417 25.3 16.2417 24.54C16.655 23.78 17.2084 23.18 17.9017 22.74C18.6084 22.3 19.4084 22.08 20.3017 22.08C20.955 22.08 21.5417 22.2067 22.0617 22.46C22.595 22.7134 23.0284 23.0667 23.3617 23.52C23.695 23.96 23.8817 24.4667 23.9217 25.04V29.24C23.8817 29.8134 23.695 30.3267 23.3617 30.78C23.0417 31.22 22.615 31.5667 22.0817 31.82C21.5484 32.0734 20.955 32.2 20.3017 32.2ZM20.9217 29.44C21.575 29.44 22.1017 29.2267 22.5017 28.8C22.9017 28.36 23.1017 27.8067 23.1017 27.14C23.1017 26.6867 23.0084 26.2867 22.8217 25.94C22.6484 25.5934 22.395 25.3267 22.0617 25.14C21.7417 24.94 21.3684 24.84 20.9417 24.84C20.515 24.84 20.135 24.94 19.8017 25.14C19.4817 25.3267 19.2217 25.5934 19.0217 25.94C18.835 26.2867 18.7417 26.6867 18.7417 27.14C18.7417 27.58 18.835 27.9734 19.0217 28.32C19.2084 28.6667 19.4684 28.94 19.8017 29.14C20.135 29.34 20.5084 29.44 20.9217 29.44ZM22.9817 32V29.38L23.4417 27.02L22.9817 24.66V22.28H25.9817V32H22.9817Z" fill="#2C2C2C"/>
<path d="M30.5162 32L27.1562 22.28H30.1562L32.2362 29.34L31.3562 29.36L33.6562 22.28H36.1362L38.4562 29.36L37.5562 29.34L39.6562 22.28H42.6562L39.2962 32H36.7962L34.5362 25.28H35.2962L32.9962 32H30.5162Z" fill="#2C2C2C"/>
<path d="M43.8394 32V22.28H46.8994V32H43.8394ZM46.8994 26.66L45.6194 25.66C45.8727 24.5267 46.2994 23.6467 46.8994 23.02C47.4994 22.3934 48.3327 22.08 49.3994 22.08C49.866 22.08 50.2727 22.1534 50.6194 22.3C50.9794 22.4334 51.2927 22.6467 51.5594 22.94L49.7394 25.24C49.606 25.0934 49.4394 24.98 49.2394 24.9C49.0394 24.82 48.8127 24.78 48.5594 24.78C48.0527 24.78 47.646 24.94 47.3394 25.26C47.046 25.5667 46.8994 26.0334 46.8994 26.66Z" fill="#2C2C2C"/>
<path d="M56.1611 32.2C55.2677 32.2 54.4677 31.98 53.7611 31.54C53.0677 31.1 52.5144 30.5 52.1011 29.74C51.7011 28.98 51.5011 28.1134 51.5011 27.14C51.5011 26.1667 51.7011 25.3 52.1011 24.54C52.5144 23.78 53.0677 23.18 53.7611 22.74C54.4677 22.3 55.2677 22.08 56.1611 22.08C56.8144 22.08 57.4011 22.2067 57.9211 22.46C58.4544 22.7134 58.8877 23.0667 59.2211 23.52C59.5544 23.96 59.7411 24.4667 59.7811 25.04V29.24C59.7411 29.8134 59.5544 30.3267 59.2211 30.78C58.9011 31.22 58.4744 31.5667 57.9411 31.82C57.4077 32.0734 56.8144 32.2 56.1611 32.2ZM56.7811 29.44C57.4344 29.44 57.9611 29.2267 58.3611 28.8C58.7611 28.36 58.9611 27.8067 58.9611 27.14C58.9611 26.6867 58.8677 26.2867 58.6811 25.94C58.5077 25.5934 58.2544 25.3267 57.9211 25.14C57.6011 24.94 57.2277 24.84 56.8011 24.84C56.3744 24.84 55.9944 24.94 55.6611 25.14C55.3411 25.3267 55.0811 25.5934 54.8811 25.94C54.6944 26.2867 54.6011 26.6867 54.6011 27.14C54.6011 27.58 54.6944 27.9734 54.8811 28.32C55.0677 28.6667 55.3277 28.94 55.6611 29.14C55.9944 29.34 56.3677 29.44 56.7811 29.44ZM58.8411 32V29.38L59.3011 27.02L58.8411 24.66V22.28H61.8411V32H58.8411Z" fill="#2C2C2C"/>
<path d="M65.3756 32V18.26H68.4356V32H65.3756ZM63.1756 24.88V22.28H70.6356V24.88H63.1756Z" fill="#2C2C2C"/>
<path d="M84.8925 32L78.4125 24.88C77.9058 24.32 77.5392 23.7934 77.3125 23.3C77.0858 22.7934 76.9725 22.24 76.9725 21.64C76.9725 20.92 77.1525 20.26 77.5125 19.66C77.8858 19.0467 78.3858 18.56 79.0125 18.2C79.6525 17.8267 80.3925 17.64 81.2325 17.64C81.8858 17.64 82.4658 17.74 82.9725 17.94C83.4792 18.1267 83.9192 18.3734 84.2925 18.68C84.6658 18.9734 84.9525 19.2867 85.1525 19.62L83.1125 21.56C82.8458 21.2 82.5658 20.9267 82.2725 20.74C81.9925 20.5534 81.6592 20.46 81.2725 20.46C80.8725 20.46 80.5392 20.58 80.2725 20.82C80.0192 21.0467 79.8925 21.3334 79.8925 21.68C79.8925 21.9734 79.9525 22.2334 80.0725 22.46C80.2058 22.6867 80.3925 22.94 80.6325 23.22L88.4725 32H84.8925ZM80.2525 32.22C79.2925 32.22 78.4525 32.0334 77.7325 31.66C77.0258 31.2734 76.4725 30.7534 76.0725 30.1C75.6858 29.4334 75.4925 28.6934 75.4925 27.88C75.4925 27 75.7258 26.22 76.1925 25.54C76.6591 24.8467 77.3592 24.2867 78.2925 23.86L79.5925 25.84C79.1925 26.0267 78.8925 26.2734 78.6925 26.58C78.4925 26.8867 78.3925 27.2534 78.3925 27.68C78.3925 28.0267 78.4658 28.3334 78.6125 28.6C78.7725 28.8534 78.9992 29.0534 79.2925 29.2C79.5858 29.3467 79.9325 29.42 80.3325 29.42C80.7858 29.42 81.1725 29.3267 81.4925 29.14C81.8258 28.94 82.1058 28.6667 82.3325 28.32L84.3925 30.44C84.1658 30.7334 83.8391 31.02 83.4125 31.3C82.9991 31.5667 82.5191 31.7867 81.9725 31.96C81.4391 32.1334 80.8658 32.22 80.2525 32.22Z" fill="#2C2C2C"/>
<path d="M97.1875 32.22C96.0275 32.22 95.0275 32.0334 94.1875 31.66C93.3608 31.2734 92.6008 30.6934 91.9075 29.92L93.9475 27.9C94.4008 28.42 94.9008 28.8267 95.4475 29.12C96.0075 29.4 96.6541 29.54 97.3875 29.54C98.0541 29.54 98.5675 29.42 98.9275 29.18C99.3008 28.94 99.4875 28.6067 99.4875 28.18C99.4875 27.7934 99.3675 27.48 99.1275 27.24C98.8875 27 98.5675 26.7934 98.1675 26.62C97.7808 26.4467 97.3475 26.28 96.8675 26.12C96.4008 25.96 95.9342 25.78 95.4675 25.58C95.0008 25.3667 94.5675 25.1067 94.1675 24.8C93.7808 24.48 93.4675 24.0867 93.2275 23.62C92.9875 23.14 92.8675 22.54 92.8675 21.82C92.8675 20.9534 93.0742 20.2067 93.4875 19.58C93.9142 18.9534 94.5008 18.48 95.2475 18.16C95.9941 17.8267 96.8542 17.66 97.8275 17.66C98.8142 17.66 99.7141 17.8334 100.527 18.18C101.354 18.5267 102.034 19 102.567 19.6L100.527 21.62C100.101 21.18 99.6675 20.8534 99.2275 20.64C98.8008 20.4267 98.3142 20.32 97.7675 20.32C97.2208 20.32 96.7875 20.4267 96.4675 20.64C96.1475 20.84 95.9875 21.1334 95.9875 21.52C95.9875 21.88 96.1075 22.1734 96.3475 22.4C96.5875 22.6134 96.9008 22.8 97.2875 22.96C97.6875 23.12 98.1208 23.28 98.5875 23.44C99.0675 23.6 99.5408 23.7867 100.007 24C100.474 24.2134 100.901 24.4867 101.287 24.82C101.687 25.14 102.007 25.5534 102.247 26.06C102.487 26.5534 102.607 27.1667 102.607 27.9C102.607 29.2467 102.127 30.3067 101.167 31.08C100.207 31.84 98.8808 32.22 97.1875 32.22Z" fill="#2C2C2C"/>
<path d="M108.949 32.22C107.949 32.22 107.042 32 106.229 31.56C105.429 31.1067 104.796 30.4934 104.329 29.72C103.862 28.9467 103.629 28.08 103.629 27.12C103.629 26.16 103.862 25.3 104.329 24.54C104.796 23.78 105.429 23.18 106.229 22.74C107.029 22.2867 107.936 22.06 108.949 22.06C109.962 22.06 110.869 22.28 111.669 22.72C112.469 23.16 113.102 23.7667 113.569 24.54C114.036 25.3 114.269 26.16 114.269 27.12C114.269 28.08 114.036 28.9467 113.569 29.72C113.102 30.4934 112.469 31.1067 111.669 31.56C110.869 32 109.962 32.22 108.949 32.22ZM108.949 29.44C109.389 29.44 109.776 29.3467 110.109 29.16C110.442 28.96 110.696 28.6867 110.869 28.34C111.056 27.98 111.149 27.5734 111.149 27.12C111.149 26.6667 111.056 26.2734 110.869 25.94C110.682 25.5934 110.422 25.3267 110.089 25.14C109.769 24.94 109.389 24.84 108.949 24.84C108.522 24.84 108.142 24.94 107.809 25.14C107.476 25.3267 107.216 25.5934 107.029 25.94C106.842 26.2867 106.749 26.6867 106.749 27.14C106.749 27.58 106.842 27.98 107.029 28.34C107.216 28.6867 107.476 28.96 107.809 29.16C108.142 29.3467 108.522 29.44 108.949 29.44Z" fill="#2C2C2C"/>
<path d="M122.212 32V26.46C122.212 25.9534 122.052 25.5467 121.732 25.24C121.426 24.92 121.032 24.76 120.552 24.76C120.219 24.76 119.926 24.8334 119.672 24.98C119.419 25.1134 119.219 25.3134 119.072 25.58C118.926 25.8334 118.852 26.1267 118.852 26.46L117.672 25.88C117.672 25.12 117.832 24.4534 118.152 23.88C118.472 23.3067 118.919 22.8667 119.492 22.56C120.066 22.24 120.726 22.08 121.472 22.08C122.232 22.08 122.899 22.24 123.472 22.56C124.046 22.8667 124.486 23.3 124.792 23.86C125.112 24.4067 125.272 25.0467 125.272 25.78V32H122.212ZM115.792 32V17.48H118.852V32H115.792Z" fill="#2C2C2C"/>
<path d="M133.658 32V26.46C133.658 25.9534 133.498 25.5467 133.178 25.24C132.871 24.92 132.478 24.76 131.998 24.76C131.664 24.76 131.371 24.8334 131.118 24.98C130.864 25.1134 130.664 25.3134 130.518 25.58C130.371 25.8334 130.298 26.1267 130.298 26.46L129.118 25.88C129.118 25.12 129.284 24.4534 129.618 23.88C129.951 23.3067 130.411 22.8667 130.998 22.56C131.598 22.24 132.271 22.08 133.018 22.08C133.738 22.08 134.371 22.2534 134.918 22.6C135.478 22.9334 135.918 23.38 136.238 23.94C136.558 24.5 136.718 25.1134 136.718 25.78V32H133.658ZM127.238 32V22.28H130.298V32H127.238Z" fill="#2C2C2C"/>
</svg>
